<svg width="100" height="100" viewBox="0 0 100 100" xmlns="http://www.w3.org/2000/svg">
  <defs>
    <pattern id="lattice" patternUnits="userSpaceOnUse" width="100" height="100">
      <rect width="100" height="100" fill="none"/>
      
      <!-- Traditional Chinese lattice pattern -->
      <g stroke="#0F766E" stroke-width="1.5" fill="none" opacity="0.08">
        <!-- Basic lattice structure -->
        <path d="M20,20 L80,20 L80,80 L20,80 Z" />
        <path d="M35,20 L35,80 M50,20 L50,80 M65,20 L65,80" />
        <path d="M20,35 L80,35 M20,50 L80,50 M20,65 L80,65" />
        
        <!-- Decorative corner elements -->
        <path d="M15,15 Q15,25 25,25 Q25,15 15,15" />
        <path d="M85,15 Q85,25 75,25 Q75,15 85,15" />
        <path d="M15,85 Q15,75 25,75 Q25,85 15,85" />
        <path d="M85,85 Q85,75 75,75 Q75,85 85,85" />
      </g>
    </pattern>
  </defs>
  
  <rect width="100" height="100" fill="url(#lattice)" />
</svg> 